<?xml version="1.0" standalone="no"?>
<!DOCTYPE svg PUBLIC "-//W3C//DTD SVG 20010904//EN"
 "http://www.w3.org/TR/2001/REC-SVG-20010904/DTD/svg10.dtd">
<svg version="1.0" xmlns="http://www.w3.org/2000/svg"
 width="260.000000pt" height="260.000000pt" viewBox="0 0 260.000000 260.000000"
 preserveAspectRatio="xMidYMid meet">
<metadata>
Created by potrace 1.11, written by Peter Selinger 2001-2013
</metadata>
<g transform="translate(0.000000,260.000000) scale(0.100000,-0.100000)"
fill="#000000" stroke="none">
<path d="M519 1977 c-135 -136 -243 -249 -240 -251 3 -2 27 -3 54 -2 26 0 47
-2 47 -6 0 -4 12 -3 26 2 16 7 23 7 19 0 -4 -6 2 -7 17 -2 23 8 125 9 132 1 2
-2 -1 -15 -7 -29 -5 -14 -11 -29 -13 -35 -8 -32 -58 -162 -66 -172 -6 -7 -8
-13 -5 -13 4 0 0 -17 -8 -37 -63 -170 -80 -217 -101 -278 -13 -38 -27 -77 -31
-85 -3 -8 -7 -18 -8 -22 -2 -5 -3 -9 -4 -10 -9 -11 -9 -55 0 -95 5 -26 12 -57
14 -68 2 -11 6 -31 9 -45 3 -14 12 -55 20 -91 8 -36 17 -81 20 -100 3 -20 8
-42 10 -50 3 -8 8 -27 11 -44 9 -47 15 -73 30 -137 16 -69 15 -65 15 -81 0 -9
96 -12 449 -12 l449 0 33 37 c19 20 77 83 130 140 53 57 107 115 120 129 68
75 244 266 305 332 31 33 52 69 70 120 33 92 89 247 114 312 10 28 33 91 51
140 17 50 36 101 42 115 6 14 11 30 13 35 1 6 12 35 24 65 12 30 22 61 23 68
0 6 5 12 10 12 6 0 8 3 4 6 -3 4 1 23 9 43 19 46 54 141 59 161 2 8 4 16 5 18
2 1 3 5 5 10 1 4 5 16 10 27 42 105 52 136 46 139 -3 2 -122 3 -263 3 -179 0
-258 -4 -258 -11 0 -6 -4 -5 -9 2 -5 9 -28 12 -75 10 l-68 -3 -54 -150 c-30
-83 -58 -159 -63 -170 -11 -24 -45 -118 -46 -125 0 -3 -14 -39 -30 -80 -16
-41 -30 -79 -31 -85 -2 -9 -36 -105 -51 -145 -4 -8 -7 -17 -8 -20 -4 -11 -17
-46 -25 -65 -4 -11 -18 -49 -31 -85 -18 -53 -62 -126 -89 -150 -3 -3 -17 -21
-30 -40 -12 -19 -28 -39 -34 -45 -6 -5 -38 -46 -71 -90 -77 -104 -95 -123 -96
-104 0 8 -3 64 -6 124 -3 61 -6 134 -6 163 -1 28 -4 52 -8 52 -6 0 38 133 61
185 5 11 18 45 28 75 11 30 76 211 146 401 69 190 126 348 126 350 0 11 -85 7
-92 -4 -5 -8 -8 -9 -8 -1 0 8 -80 11 -287 10 l-288 -1 -246 -248z"/>
</g>
</svg>
