<?xml version="1.0" standalone="no"?>
<!DOCTYPE svg PUBLIC "-//W3C//DTD SVG 20010904//EN"
 "http://www.w3.org/TR/2001/REC-SVG-20010904/DTD/svg10.dtd">
<svg version="1.0" xmlns="http://www.w3.org/2000/svg"
 width="749.000000pt" height="749.000000pt" viewBox="0 0 749.000000 749.000000"
 preserveAspectRatio="xMidYMid meet">
<metadata>
Created by potrace 1.14, written by Peter Selinger 2001-2017
</metadata>
<g transform="translate(0.000000,749.000000) scale(0.100000,-0.100000)"
fill="#000000" stroke="none">
<path d="M4127 7008 c-71 -15 -140 -61 -232 -153 -166 -167 -398 -571 -407
-712 -1 -7 -6 -13 -13 -13 -18 0 -50 -50 -109 -172 l-55 -114 -73 7 c-51 5
-95 17 -148 42 -158 72 -476 231 -492 245 -31 26 -64 7 -103 -59 -47 -80 -51
-115 -26 -195 32 -96 62 -159 127 -260 78 -121 109 -159 234 -284 118 -117
131 -129 248 -219 l83 -64 -7 -56 c-3 -31 -7 -56 -8 -56 0 0 -28 -23 -61 -50
-84 -70 -113 -103 -136 -154 -19 -44 -19 -44 1 -100 l21 -56 -53 55 c-30 30
-68 73 -85 95 -96 122 -121 151 -139 160 -10 6 -36 20 -55 33 -48 29 -66 28
-124 -9 -83 -53 -155 -140 -155 -187 0 -38 40 -129 96 -218 l55 -88 -2 -80
c-1 -45 -9 -119 -19 -166 -63 -319 -63 -323 0 -510 35 -105 48 -132 83 -167
23 -24 49 -46 59 -49 26 -8 22 -25 -5 -20 -21 4 -83 -4 -144 -19 -12 -3 -61
-35 -108 -71 -102 -77 -169 -110 -245 -119 -57 -6 -78 -3 -266 35 -101 21
-114 22 -154 8 -54 -18 -79 -50 -83 -105 -2 -23 -6 -45 -9 -48 -12 -12 -145
133 -207 225 -36 52 -68 97 -73 98 -4 2 -8 10 -8 18 0 8 -4 14 -8 14 -4 0 -16
14 -26 31 -29 49 -84 99 -166 152 -41 27 -106 69 -145 94 -77 49 -121 73 -237
127 -58 28 -89 36 -131 36 -34 0 -59 5 -66 14 -6 7 -31 21 -56 31 -43 16 -48
16 -92 -1 -27 -10 -52 -21 -58 -25 -5 -3 -34 -7 -64 -8 -75 -1 -89 -7 -96 -44
-4 -18 -14 -42 -22 -55 -8 -13 -16 -42 -18 -65 -1 -23 -15 -73 -29 -112 -16
-44 -22 -73 -16 -79 6 -6 10 -20 10 -33 0 -12 9 -38 20 -58 11 -19 22 -50 25
-68 3 -17 8 -47 11 -65 7 -38 32 -55 77 -51 18 2 37 0 42 -3 6 -3 28 -9 50
-12 34 -6 44 -3 59 13 17 19 20 19 52 4 19 -9 34 -20 34 -24 0 -4 18 -7 40 -7
22 0 43 -3 48 -6 4 -2 59 -7 122 -11 237 -13 247 -14 282 -48 61 -60 302 -237
322 -237 2 0 49 -28 103 -62 183 -115 208 -129 259 -144 57 -16 81 -22 139
-29 22 -4 49 -8 60 -10 11 -2 23 -4 27 -4 3 -1 21 -27 39 -58 53 -95 153 -234
218 -303 34 -36 78 -96 97 -135 20 -38 49 -93 65 -122 16 -29 29 -54 29 -56 0
-3 -14 -7 -31 -11 -43 -8 -100 -37 -94 -46 7 -12 64 -1 106 19 l36 18 24 -36
c13 -20 45 -66 71 -102 27 -37 48 -74 48 -83 0 -9 6 -16 14 -16 7 0 23 -13 35
-28 51 -67 90 -111 177 -203 24 -26 44 -49 44 -51 0 -3 -22 -19 -50 -36 -27
-17 -50 -36 -50 -42 0 -14 1 -13 73 25 l56 30 30 -29 c24 -23 28 -33 21 -47
-6 -10 -10 -26 -10 -35 0 -15 3 -15 23 4 l24 22 38 -32 c21 -18 50 -42 63 -54
l24 -20 -30 -29 c-17 -16 -29 -32 -26 -37 6 -9 54 12 54 23 0 4 9 10 19 14 13
4 52 -16 125 -63 l106 -69 -21 -27 c-32 -40 -18 -54 21 -19 l34 30 70 -32
c125 -57 140 -63 211 -81 39 -10 75 -24 81 -31 6 -7 24 -11 42 -8 18 2 47 -1
65 -6 17 -6 82 -12 142 -13 99 -3 117 -7 180 -35 108 -49 208 -71 327 -71 89
0 117 4 192 30 163 55 304 179 459 402 26 38 47 69 47 71 0 2 20 39 45 82 38
66 124 165 144 165 3 0 17 -16 30 -35 23 -35 51 -47 51 -22 0 7 -11 28 -24 48
l-24 35 49 32 c67 45 79 48 79 24 0 -11 7 -25 15 -32 20 -17 32 12 17 44 -13
29 -11 32 78 90 74 48 180 127 211 156 9 8 32 30 51 48 33 32 36 32 64 17 62
-32 83 -7 23 28 -28 16 -30 19 -17 35 55 67 90 184 83 281 -5 61 -5 61 23 61
15 0 33 4 41 9 21 13 -6 25 -51 22 -31 -1 -38 2 -38 16 0 15 -33 88 -78 174
-1 4 45 -17 103 -46 58 -30 119 -58 135 -63 20 -7 30 -19 35 -41 10 -45 113
-198 171 -253 81 -77 116 -106 161 -128 78 -39 140 -25 208 47 24 26 26 34 24
113 -2 105 -22 233 -49 316 -11 35 -20 70 -20 78 0 8 27 46 60 83 34 37 82 97
108 133 26 36 129 146 228 245 100 99 193 200 207 225 22 39 45 121 39 142 -1
3 -4 21 -7 40 -14 79 -71 263 -109 353 -8 17 -26 62 -41 100 -50 125 -97 219
-146 292 -27 39 -53 74 -58 78 -6 3 -20 26 -32 51 -32 63 -68 100 -121 124
-91 40 -183 29 -283 -33 -27 -17 -52 -34 -55 -37 -3 -3 -21 -17 -40 -31 -19
-15 -46 -37 -60 -49 -63 -56 -211 -161 -265 -188 -33 -17 -103 -40 -155 -52
-52 -12 -115 -29 -140 -36 -31 -10 -46 -11 -48 -4 -9 25 -122 111 -206 157
-11 6 -21 17 -22 24 -11 70 -45 259 -48 276 -5 23 -4 23 77 16 152 -13 381 -7
480 13 12 2 42 7 67 10 150 19 437 94 453 118 14 21 27 85 31 145 5 70 1 74
-91 115 -180 78 -444 106 -766 81 l-88 -7 3 66 c4 62 -4 170 -17 226 -3 14 -8
41 -11 60 -5 32 -41 169 -60 228 l-7 24 34 -17 c27 -14 124 -89 149 -115 33
-35 129 -106 185 -136 63 -35 76 -38 145 -38 41 0 104 3 140 7 36 4 96 9 133
12 108 10 146 30 125 68 -9 18 -9 19 12 4 17 -12 28 -13 57 -4 48 15 95 60 87
84 -6 15 -4 16 7 6 19 -18 42 -16 57 5 71 102 112 165 112 172 0 5 4 10 8 12
15 6 103 139 123 185 22 51 25 92 7 98 -7 2 -37 6 -67 9 -69 7 -112 21 -172
56 -61 37 -81 40 -101 15 -17 -20 -17 -20 -18 7 0 15 -4 30 -10 33 -5 3 -10 1
-10 -5 0 -7 -8 -23 -19 -36 l-18 -24 5 45 c5 50 3 52 -65 59 -29 3 -43 0 -43
-7 0 -7 -9 -23 -20 -37 l-19 -25 3 52 3 52 -51 11 c-29 6 -86 11 -127 12 -65
1 -83 -3 -126 -27 -65 -35 -283 -213 -283 -230 0 -3 -27 -33 -61 -66 -72 -72
-167 -135 -181 -121 -5 5 -10 58 -10 118 -1 97 2 120 31 213 49 155 72 240
141 509 8 31 5 38 -49 100 -135 156 -222 202 -386 202 -110 0 -441 -74 -565
-127 -8 -3 -48 -16 -89 -29 l-75 -22 -28 21 c-15 11 -30 29 -34 39 -3 10 -9
18 -13 18 -4 0 -19 21 -32 48 -40 81 -70 121 -107 144 -48 29 -128 46 -175 36z
m2404 -4510 c20 -69 26 -116 33 -245 4 -60 -4 -65 -67 -38 -39 16 -83 66 -145
167 -47 75 -50 87 -24 86 29 -2 95 21 137 46 22 13 43 25 47 25 4 1 13 -18 19
-41z"/>
</g>
</svg>
